:FULLY-SPECIFIED
:FORCE-ALL-JOINTS-BE-3DOF
:DEGREES
1427
root -2.08881 13.7328 12.6636 6.49167 26.4276 6.45971
lfemur 26.7706 0.183771 -10.6992
ltibia 15.7013 -0 0
lfoot -15.5166 34.8148 0.00560832
ltoes -23.6813 0 0
rfemur -65.7942 -21.8222 12.5247
rtibia 74.1496 -0 0
rfoot -9.20632 11.818 0.00990297
rtoes 5.22005 -0 0
lowerback 9.81246 1.99293 -10.6002
upperback -3.44211 1.16136 -0.976647
thorax -9.49821 1.16017 4.703
lowerneck 0.461937 -12.1378 -10.772
upperneck 5.92924 -16.7598 10.2345
head 3.41133 -8.32651 4.05042
lclavicle 9.37161e-15 9.6659e-15 0
lhumerus -75.4932 -17.7506 104.742
lradius 101.038 -0 0
lwrist 58.9987 0 0
lhand -8.35417 41.9968 0.00581198
lfingers 7.12502 -0 0
lthumb 17.5698 71.2549 0.0108418
rclavicle 9.37161e-15 9.6659e-15 0
rhumerus 63.8592 -15.095 -28.1487
rradius 82.5748 -0 0
rwrist 27.907 0 0
rhand -45.0626 -31.4622 -0.059332
rfingers 7.12502 -0 0
rthumb -17.8475 -60.7391 -0.0493778
1428
root -2.09225 13.7302 12.6655 6.50836 26.4742 6.47654
lfemur 26.6705 0.163987 -10.6729
ltibia 15.8136 -0 0
lfoot -15.5108 34.8038 0.00530202
ltoes -23.6056 0 0
rfemur -65.8079 -21.8281 12.5232
rtibia 74.162 -0 0
rfoot -9.20466 11.7636 0.0090372
rtoes 5.23088 -0 0
lowerback 9.83242 1.98774 -10.5987
upperback -3.44391 1.15208 -0.97321
thorax -9.51034 1.15643 4.70707
lowerneck 0.430975 -12.1078 -10.7486
upperneck 5.93764 -16.7138 10.1904
head 3.41127 -8.30391 4.03636
lclavicle 9.37161e-15 9.6659e-15 0
lhumerus -75.4161 -17.7898 104.747
lradius 101.02 -0 0
lwrist 58.9879 0 0
lhand -8.40678 41.9389 0.00591765
lfingers 7.12502 -0 0
lthumb 17.5191 71.1996 0.0106331
rclavicle 9.37161e-15 9.6659e-15 0
rhumerus 63.7923 -15.0233 -28.1188
rradius 82.5679 -0 0
rwrist 27.8116 0 0
rhand -44.9773 -31.4416 -0.0558355
rfingers 7.12502 -0 0
rthumb -17.7652 -60.7214 -0.0464698
1429
root -2.09568 13.7275 12.6674 6.52949 26.5273 6.49491
lfemur 26.5619 0.141679 -10.6434
ltibia 15.9264 -0 0
lfoot -15.5031 34.7883 0.00491998
ltoes -23.5438 0 0
rfemur -65.8229 -21.8291 12.5201
rtibia 74.1738 -0 0
rfoot -9.20281 11.6925 0.00810582
rtoes 5.24638 -0 0
lowerback 9.85843 1.98348 -10.5925
upperback -3.44358 1.14399 -0.969823
thorax -9.5236 1.15298 4.70812
lowerneck 0.394545 -12.0722 -10.722
upperneck 5.94522 -16.6592 10.1411
head 3.41091 -8.27712 4.0208
lclavicle 9.37161e-15 9.6659e-15 0
lhumerus -75.3168 -17.8338 104.747
lradius 101.002 -0 0
lwrist 58.9674 0 0
lhand -8.47035 41.8848 0.00586124
lfingers 7.12502 -0 0
lthumb 17.4578 71.1487 0.0102026
rclavicle 9.37161e-15 9.6659e-15 0
rhumerus 63.7164 -14.9376 -28.0861
rradius 82.5563 -0 0
rwrist 27.7032 0 0
rhand -44.8749 -31.4173 -0.0515894
rfingers 7.12502 -0 0
rthumb -17.6665 -60.7006 -0.0429372
1430
root -2.09912 13.7249 12.6694 6.5554 26.5871 6.51489
lfemur 26.4446 0.116779 -10.6106
ltibia 16.0391 -0 0
lfoot -15.4932 34.7681 0.00445938
ltoes -23.4981 0 0
rfemur -65.8394 -21.8247 12.5153
rtibia 74.1853 -0 0
rfoot -9.2009 11.604 0.00711244
rtoes 5.25378 -0 0
lowerback 9.8908 1.98022 -10.5814
upperback -3.44101 1.13718 -0.966497
thorax -9.53804 1.14985 4.70594
lowerneck 0.352363 -12.0306 -10.6919
upperneck 5.9519 -16.5957 10.0863
head 3.41022 -8.24592 4.00368
lclavicle 9.37161e-15 9.6659e-15 0
lhumerus -75.1938 -17.8828 104.74
lradius 100.982 -0 0
lwrist 58.9367 0 0
lhand -8.54543 41.8348 0.00562753
lfingers 7.12502 -0 0
lthumb 17.3854 71.1023 0.00953377
rclavicle 9.37161e-15 9.6659e-15 0
rhumerus 63.6311 -14.8372 -28.0505
rradius 82.5398 -0 0
rwrist 27.5809 0 0
rhand -44.7546 -31.3891 -0.0465742
rfingers 7.12502 -0 0
rthumb -17.5504 -60.6764 -0.0387641
1431
root -2.10255 13.7223 12.6713 6.58639 26.6539 6.53657
lfemur 26.3185 0.0892234 -10.5742
ltibia 16.1513 -0 0
lfoot -15.481 34.7428 0.00391815
ltoes -23.4685 0 0
rfemur -65.8578 -21.8148 12.5089
rtibia 74.1966 -0 0
rfoot -9.19905 11.4971 0.00606043
rtoes 5.26023 -0 0
lowerback 9.92981 1.97801 -10.5651
upperback -3.43605 1.13174 -0.963242
thorax -9.55369 1.14704 4.70035
lowerneck 0.304144 -11.9828 -10.6583
upperneck 5.95759 -16.5227 10.0259
head 3.40919 -8.21009 3.98491
lclavicle 9.37161e-15 9.6659e-15 0
lhumerus -75.0461 -17.9371 104.726
lradius 100.962 -0 0
lwrist 58.8952 0 0
lhand -8.63252 41.7892 0.00520356
lfingers 7.12502 -0 0
lthumb 17.3014 71.061 0.00861302
rclavicle 9.37161e-15 9.6659e-15 0
rhumerus 63.536 -14.7214 -28.0121
rradius 82.5181 -0 0
rwrist 27.4441 0 0
rhand -44.6155 -31.3568 -0.0407758
rfingers 7.12502 -0 0
rthumb -17.4161 -60.6485 -0.0339385
1432
root -2.10598 13.7196 12.6732 6.62279 26.728 6.56006
lfemur 26.1834 0.05895 -10.534
ltibia 16.2623 -0 0
lfoot -15.4662 34.7124 0.00329509
ltoes -23.4564 0 0
rfemur -65.8783 -21.7991 12.5009
rtibia 74.2078 -0 0
rfoot -9.19737 11.3713 0.00495277
rtoes 5.25718 -0 0
lowerback 9.97579 1.97691 -10.5432
upperback -3.4286 1.12776 -0.960067
thorax -9.5706 1.14459 4.69115
lowerneck 0.249607 -11.9286 -10.621
upperneck 5.9622 -16.4399 9.95948
head 3.40779 -8.16941 3.96443
lclavicle 9.37161e-15 9.6659e-15 0
lhumerus -74.8725 -17.9968 104.706
lradius 100.939 -0 0
lwrist 58.8423 0 0
lhand -8.73216 41.7483 0.00457915
lfingers 7.12502 -0 0
lthumb 17.2053 71.0249 0.00742967
rclavicle 9.37161e-15 9.6659e-15 0
rhumerus 63.4307 -14.5895 -27.9709
rradius 82.491 -0 0
rwrist 27.2922 0 0
rhand -44.4568 -31.3201 -0.0341861
rfingers 7.12502 -0 0
rthumb -17.2629 -60.6169 -0.0284539
1433
root -2.10942 13.717 12.6751 6.66492 26.8094 6.58544
lfemur 26.0393 0.0258998 -10.4899
ltibia 16.3717 -0 0
lfoot -15.4485 34.6764 0.00259002
ltoes -23.4628 0 0
rfemur -65.901 -21.7774 12.4914
rtibia 74.2191 -0 0
rfoot -9.19597 11.2255 0.00379187
rtoes 5.25317 -0 0
lowerback 10.029 1.97698 -10.5154
upperback -3.41852 1.12533 -0.956984
thorax -9.58881 1.14252 4.67816
lowerneck 0.188474 -11.8675 -10.5799
upperneck 5.96563 -16.3468 9.88693
head 3.406 -8.12368 3.94217
lclavicle 9.37161e-15 9.6659e-15 0
lhumerus -74.6716 -18.0622 104.678
lradius 100.916 -0 0
lwrist 58.7776 0 0
lhand -8.84485 41.7124 0.00374736
lfingers 7.12502 -0 0
lthumb 17.0966 70.9944 0.00597681
rclavicle 9.37161e-15 9.6659e-15 0
rhumerus 63.315 -14.4407 -27.9269
rradius 82.4583 -0 0
rwrist 27.1244 0 0
rhand -44.2775 -31.2789 -0.0268037
rfingers 7.12502 -0 0
rthumb -17.0899 -60.5814 -0.0223092
1434
root -2.11285 13.7144 12.677 6.71311 26.8985 6.61282
lfemur 25.886 -0.00998316 -10.4417
ltibia 16.4789 -0 0
lfoot -15.4279 34.6348 0.00180398
ltoes -23.489 0 0
rfemur -65.9263 -21.7495 12.4802
rtibia 74.2305 -0 0
rfoot -9.19498 11.059 0.00257929
rtoes 5.24533 -0 0
lowerback 10.0898 1.97826 -10.4816
upperback -3.40569 1.12454 -0.954001
thorax -9.60834 1.14084 4.66117
lowerneck 0.120469 -11.7993 -10.5347
upperneck 5.96778 -16.243 9.80796
head 3.4038 -8.07268 3.91805
lclavicle 9.37161e-15 9.6659e-15 0
lhumerus -74.4423 -18.1335 104.643
lradius 100.891 -0 0
lwrist 58.7004 0 0
lhand -8.97112 41.6818 0.00270516
lfingers 7.12502 -0 0
lthumb 16.9748 70.9699 0.0042518
rclavicle 9.37161e-15 9.6659e-15 0
rhumerus 63.1884 -14.2743 -27.8801
rradius 82.4196 -0 0
rwrist 26.94 0 0
rhand -44.0767 -31.2329 -0.0186344
rfingers 7.12502 -0 0
rthumb -16.8962 -60.5416 -0.0155094
